<svg id="new-sticker" data-name="new-sticker" xmlns="http://www.w3.org/2000/svg" viewBox="0 0 71 71">
  <path id="star" d="M69.34,26.9c.11.43-.17.64-.38.86-1.16,1.2-2.34,2.38-3.56,3.62.07.06.16.2.29.27,1.17.63,2.33,1.25,3.51,1.85.24.12.52.17.78.27.23.09.35.43.19.61-.2.23-.43.46-.68.64-1.2.82-2.42,1.63-3.64,2.44-.09.06-.17.12-.31.22.12.16.21.34.35.47.6.53,1.2,1.06,1.82,1.56.62.5,1.27.97,1.9,1.45.04.37-.26.49-.48.6-.68.35-1.37.68-2.07.99-.86.38-1.73.72-2.67,1.12.2.26.35.48.53.68.86.92,1.63,1.9,2.3,2.97.19.29.38.58.43.99-.17.11-.33.26-.51.31-.71.18-1.42.33-2.14.48-.68.14-1.37.24-2.05.37-.23.04-.45.12-.67.19.15.81,1.36,3.88,1.94,4.96-.21.36-.58.36-.91.37-1.25.04-2.5.06-3.75.08-.31,0-.62,0-.99,0,.27,1.87.74,3.66.63,5.57-.23.02-.44.08-.63.05-.55-.09-1.1-.2-1.63-.34-1.1-.3-2.2-.63-3.32-.96-.07.12-.15.21-.16.29-.02,1.16-.44,2.25-.64,3.38-.08.48-.49.73-.72,1.05-.44.09-.73-.06-1.05-.23-.82-.45-1.67-.84-2.46-1.24-.34.11-.29.36-.32.55-.2.99-.38,1.98-.56,2.98-.13.73-.33,1.42-.82,2.08-1.86-.71-3.16-2.19-4.69-3.43-.42.38-.68.83-.89,1.3-.42.92-.82,1.85-1.23,2.77-.11.25-.23.5-.37.74-.05.08-.16.12-.3.23-.54-.67-1.07-1.34-1.61-2.01-.52-.65-1.05-1.3-1.61-1.99-.14.11-.28.2-.39.32-.87.99-1.73,2-2.61,2.99-.25.28-.49.6-.91.68-.33-.1-.47-.39-.61-.66-.44-.87-.88-1.74-1.3-2.62-.22-.47-.48-.91-.7-1.36-.59.14-.88.57-1.24.88-.98.83-1.96,1.67-2.95,2.48-.2.16-.43.39-.82.15.05-1.89-.76-3.65-1.14-5.58-.3.1-.5.13-.66.23-1.07.66-2.12,1.33-3.19,1.99-.32.2-.67.38-1.02.53-.46.19-.69,0-.71-.53-.04-1.56-.1-3.13-.16-4.69,0-.13-.07-.26-.13-.46-.85.28-1.67.55-2.49.82-.63.21-1.25.43-1.88.63-.45.14-.45.12-1.15-.08.22-.89.46-1.79.54-2.72.08-.93.2-1.86.3-2.71-.2-.26-.38-.18-.54-.16-1.14.15-2.27.32-3.41.46-.48.06-.97.06-1.45.04-.18,0-.36-.16-.57-.26.48-1.84,1.38-3.46,2.06-5.19-1.49-.2-2.93-.39-4.38-.58-.31-.04-.62-.08-.92-.16-.15-.04-.28-.16-.47-.27.97-1.67,1.91-3.29,2.88-4.97-.39-.19-.76-.25-1.11-.35-.37-.1-.74-.19-1.11-.3-.37-.11-.73-.22-1.1-.34-.36-.13-.72-.26-1.07-.42-.34-.16-.74-.22-.99-.59,1.18-1.53,2.51-2.88,3.96-4.23-.21-.15-.37-.28-.54-.37-1.03-.59-2.06-1.16-3.08-1.76-.44-.26-.88-.54-1.2-1.04.21-.3.58-.24.81-.43.24-.19.52-.34.78-.51.26-.17.52-.35.78-.52.23-.16.46-.32.68-.48.25-.18.51-.37.76-.56.24-.18.48-.38.76-.59-1.38-1.45-2.94-2.62-4.29-4.11.32-.31.7-.22,1-.35.32-.14.65-.24.98-.36.33-.12.65-.24.98-.36.29-.11.59-.21.88-.32.33-.11.66-.22.99-.34.32-.11.65-.22,1.04-.35-1.03-1.75-2.36-3.19-3.39-4.78.17-.39.48-.35.74-.41,1.6-.32,3.2-.64,4.88-.97-.07-.22-.1-.42-.19-.59-.63-1.32-1.28-2.63-1.91-3.95-.1-.21-.15-.44-.24-.71,1.04-.18,2.01-.12,2.97-.12.97,0,1.94.02,2.95.03.06-.96-.26-1.82-.42-2.7-.16-.88-.41-1.75-.5-2.6.07-.08.08-.11.11-.13.03-.02.06-.03.1-.03.07,0,.14-.02.21,0,1.63.37,3.25.75,4.93,1.14.21-.45.19-.94.25-1.41.05-.45.07-.9.11-1.35.04-.49.08-.97.11-1.46.03-.45.06-.89.09-1.37.69-.09,1.14.37,1.67.57.52.19,1.02.44,1.52.7.52.27,1.02.59,1.59.92.08-.19.18-.36.23-.54.31-1.11.6-2.22.92-3.32.12-.43.25-.86.49-1.19.42-.16.69.04.93.21.56.41,1.11.83,1.65,1.28.69.58,1.35,1.19,2.13,1.79.34-.61.55-1.19.8-1.76.24-.54.46-1.09.71-1.63.26-.56.47-1.15.85-1.75,1.59.97,2.55,2.57,3.94,3.8,1.15-1.45,2.21-2.89,3.38-4.24.72.64,1.89,2.45,3.17,4.89.2-.12.42-.21.58-.36.82-.75,1.62-1.52,2.43-2.29.28-.26.55-.53.79-.76.38-.06.61.1.74.35.16.3.3.63.42.95.36.98.7,1.97,1.05,2.95.07.19.15.38.24.62.49-.08.83-.4,1.2-.62,1.37-.81,1.22-.68,2.4.08.26.17.49.4.77.54.54.28.69.76.73,1.3.04.59.04,1.18.07,1.77.01.2.06.4.1.65.31-.06.58-.11.87-.17.07.03.19.05.26.12.5.48.99.97,1.48,1.47.46.47.89.98,1.37,1.44.31.3.55.62.67,1.09,1.91-.23,3.81-.33,5.77-.13.02.19.08.4.04.58-.09.37-.23.73-.37,1.09-.43,1.14-.87,2.27-1.34,3.48.94.1,1.83.19,2.71.29.86.1,1.72.22,2.54.33.31.29.3.59.15.89-.24.47-.47.94-.73,1.39-.53.9-1.08,1.79-1.61,2.69-.05.08-.07.18-.12.31.88.36,1.75.7,2.62,1.07.86.36,1.71.72,2.61.89ZM25.14,67.88c.18-.13.3-.19.41-.28.89-.78,1.77-1.57,2.66-2.35.41-.36.8-.78,1.45-.89.98,1.48,1.67,3.11,2.49,4.69.1-.06.21-.09.27-.16.95-1.11,1.9-2.22,2.85-3.33.18-.21.36-.43.56-.61.24-.22.61-.15.67.15.11.51.45.85.76,1.22.54.64,1.06,1.29,1.6,1.93.1.12.24.22.4.35.39-.85.71-1.66,1.11-2.43.35-.67.78-1.31,1.21-1.95.1-.15.32-.23.48-.33.82.62,1.6,1.2,2.36,1.8.76.61,1.49,1.24,2.31,1.93.14-2.06.48-3.99,1.16-5.91.39.14.74.25,1.1.39.36.13.72.27,1.07.42.35.14.72.28,1.05.46.33.17.63.38.93.57.29-.19.37-.45.39-.73.03-.35.05-.69.07-1.04.05-1.01.25-1.99.51-3.01.26-.02.5-.08.73-.04.55.1,1.1.2,1.62.38.95.34,1.88.74,2.82,1.11.14.06.3.09.54.16-.07-.31-.1-.51-.15-.71-.42-1.51-.72-3.05-.96-4.6-.08-.53.06-.73.59-.74.8-.02,1.6.03,2.4.04.62,0,1.25.01,1.87,0,.19,0,.42,0,.54-.27-.03-.1-.07-.23-.12-.36-.41-.88-.83-1.76-1.23-2.65-.16-.35-.3-.71-.41-1.07-.11-.38,0-.61.34-.77.34-.17.69-.34,1.06-.43,1.32-.32,2.64-.6,4-.7.13,0,.25-.07.46-.12-.53-.82-1.16-1.47-1.7-2.17-.57-.73-1.33-1.32-1.76-2.16.17-.37.45-.56.78-.7,1.03-.43,2.05-.87,3.08-1.28.6-.24.61-.21,1.18-.72-1.39-1.13-2.77-2.27-4.2-3.43.14-.18.22-.34.35-.44.36-.28.73-.53,1.11-.78.92-.62,1.85-1.24,2.76-1.87.18-.12.43-.22.47-.54-.25-.14-.48-.27-.72-.4-.95-.51-1.91-1.01-2.86-1.51-.21-.11-.43-.23-.63-.37-.31-.22-.36-.52-.14-.82.25-.33.51-.66.81-.96.81-.81,1.64-1.6,2.46-2.41.11-.11.18-.25.28-.4-1.79-.68-3.51-1.33-5.24-1.98.42-.84.81-1.67,1.27-2.47.48-.84,1.03-1.64,1.6-2.54-1.92-.1-3.75-.22-5.61-.67.1-.49.13-.94.27-1.36.38-1.12.81-2.22,1.23-3.33.06-.16.16-.32-.07-.52-1.59.21-3.27.1-4.91.46-.13.03-.27.02-.41,0-.8-.08-1.59-.02-2.36.24-.43.15-.86.27-1.3.38-.3.07-.61.13-.92.15-.34.02-.59-.28-.54-.62.03-.2.09-.41.16-.6.32-.92.64-1.84.96-2.76.09-.25.16-.51.25-.81-.17,0-.27.01-.37.02-.48.04-.58-.02-.63-.44-.07-.59-.11-1.18-.17-1.77-.02-.16-.06-.32-.1-.51-.61.1-.85.68-1.39.81-.55-.97-.24-2.13-.7-3.14-1.04.51-1.84,1.3-2.83,1.71-.64-1.77-1.26-3.48-1.91-5.29-.67.67-1.27,1.29-1.89,1.89-.65.62-1.32,1.2-2.01,1.82-.52-.45-.91-.98-1.24-1.55-.49-.84-.92-1.72-1.38-2.58-.14-.26-.24-.57-.59-.73-.99,1.27-1.99,2.52-2.87,3.85-.14.22-.26.41-.58.38-.58-.61-1.17-1.25-1.79-1.85-.63-.62-1.16-1.34-1.88-1.98-.18.4-.32.71-.45,1.03-.36.83-.7,1.67-1.07,2.5-.37.84-.38.84-.41,1.64-.07.01-.15.05-.19.03-1.7-1.02-3.27-2.22-4.76-3.53-.39.84-1.3,4.28-1.41,5.37-.23-.08-.47-.12-.68-.22-1.2-.56-2.39-1.13-3.59-1.69-.18-.08-.37-.15-.6-.25-.05.9-.08,1.74-.15,2.57-.07.86-.12,1.72-.43,2.59-.91-.03-1.76-.19-2.61-.36-.83-.17-1.66-.4-2.56-.62.05.36.09.63.14.9.21,1.13.43,2.25.64,3.38.05.27.12.55-.15.86-.85.02-1.75.03-2.65.05-.92.02-1.85-.09-2.85.09.68,1.84,1.87,3.39,2.25,5.3-1.03-.02-1.93.21-2.83.46-.88.24-1.83.23-2.74.6,1.16,1.6,2.27,3.13,3.43,4.72-.22.1-.43.22-.65.3-1.47.55-2.94,1.09-4.4,1.64-.15.06-.28.15-.43.23.49.61,3.16,3.16,4.05,3.88-.67.61-1.44,1.08-2.14,1.63-.73.56-1.59.94-2.34,1.64.85.49,1.64.93,2.41,1.39.77.46,1.47,1.03,2.2,1.57-.12.41-.39.64-.62.89-.84.92-1.7,1.84-2.54,2.77-.15.16-.36.3-.37.62.61.21,1.19.43,1.79.62.76.25,1.53.48,2.28.74.76.27.83.46.46,1.14-.31.58-.64,1.16-.97,1.73-.42.72-.85,1.43-1.3,2.2.23.04.39.1.55.11,1.46.07,2.9.37,4.33.64.3.06.63.08.79.37-.19.43-.37.84-.55,1.25-.18.41-.37.83-.55,1.24-.2.45-.41.89-.59,1.34-.16.4-.44.78-.43,1.23.12.04.18.09.24.08.89-.13,1.79-.28,2.68-.39.62-.08,1.24-.15,1.87-.17.41-.02.83.03,1.15.32-.32.9-.29,1.82-.39,2.71-.1.88-.31,1.75-.32,2.73.64-.22,1.2-.42,1.76-.59.93-.27,1.88-.53,2.82-.77.19-.05.4-.02.66-.03.05.53.11,1.01.13,1.49.05,1.15.07,2.29.11,3.44,0,.16-.04.36.22.44.1-.05.23-.11.34-.18,1.25-.76,2.49-1.53,3.73-2.29.21-.13.42-.24.65-.31.28-.09.59.15.55.45-.05.32-.05.62.03.92.38,1.37.76,2.75,1.17,4.24ZM55.98,13.15c-.91-.86-1.76-1.65-2.67-2.5-.6,1.17-.86,2.39-1.37,3.51-.05.12-.14.25-.01.38,1.12-.26,3.51-1.06,4.05-1.38ZM50,5.91c0,.3,0,.54.02.77.03.3.08.59.12.9.65-.28.74-.34,1.18-.85-.38-.34-.79-.62-1.32-.82Z" style="fill: #292724; stroke-width: 0px;"/>
  <path id="corner-2" d="M55.98,13.15c-.54.33-2.93,1.13-4.05,1.38-.13-.13-.04-.26.01-.38.51-1.12.77-2.34,1.37-3.51.91.85,1.76,1.65,2.67,2.5Z" style="fill: #968c82; stroke-width: 0px;"/>
  <path id="corner-1" d="M50,5.91c.53.2.94.49,1.32.82-.44.51-.53.57-1.18.85-.04-.31-.1-.6-.12-.9-.02-.24-.01-.48-.02-.77Z" style="fill: #968c82; stroke-width: 0px;"/>
  <path id="star-fill" d="M25.14,67.88c-.41-1.49-.79-2.87-1.17-4.24-.09-.31-.08-.61-.03-.92.05-.3-.26-.54-.55-.45-.23.07-.45.19-.65.31-1.25.76-2.49,1.53-3.73,2.29-.12.07-.24.13-.34.18-.26-.08-.22-.28-.22-.44-.04-1.15-.07-2.3-.11-3.44-.02-.48-.08-.96-.13-1.49-.27,0-.48-.02-.66.03-.94.24-1.88.5-2.82.77-.57.17-1.12.37-1.76.59,0-.97.22-1.85.32-2.73.1-.89.07-1.81.39-2.71-.32-.3-.74-.34-1.15-.32-.62.02-1.25.09-1.87.17-.9.12-1.79.27-2.68.39-.06,0-.12-.04-.24-.08,0-.45.26-.83.43-1.23.18-.45.39-.89.59-1.34.18-.41.37-.83.55-1.24.18-.41.36-.82.55-1.25-.16-.29-.49-.31-.79-.37-1.43-.27-2.87-.57-4.33-.64-.16,0-.33-.06-.55-.11.46-.77.89-1.49,1.3-2.2.33-.57.65-1.15.97-1.73.37-.68.3-.87-.46-1.14-.75-.27-1.52-.49-2.28-.74-.59-.2-1.18-.41-1.79-.62,0-.32.22-.46.37-.62.85-.92,1.7-1.84,2.54-2.77.23-.25.5-.47.62-.89-.73-.54-1.43-1.1-2.2-1.57-.77-.46-1.56-.9-2.41-1.39.75-.7,1.61-1.07,2.34-1.64.71-.55,1.47-1.01,2.14-1.63-.89-.72-3.57-3.27-4.05-3.88.15-.08.28-.18.43-.23,1.47-.55,2.94-1.09,4.4-1.64.22-.08.43-.2.65-.3-1.16-1.59-2.27-3.13-3.43-4.72.91-.37,1.86-.36,2.74-.6.9-.25,1.81-.49,2.83-.46-.38-1.91-1.57-3.46-2.25-5.3,1-.17,1.93-.07,2.85-.09.9-.02,1.8-.03,2.65-.05.27-.31.2-.59.15-.86-.21-1.13-.43-2.25-.64-3.38-.05-.27-.08-.54-.14-.9.91.22,1.73.45,2.56.62.84.17,1.7.33,2.61.36.31-.87.36-1.74.43-2.59.07-.83.1-1.66.15-2.57.24.1.42.16.6.25,1.2.56,2.39,1.14,3.59,1.69.21.1.44.15.68.22.11-1.08,1.02-4.52,1.41-5.37,1.49,1.31,3.06,2.51,4.76,3.53.04.03.13-.02.19-.03.02-.8.03-.8.41-1.64.37-.83.71-1.66,1.07-2.5.14-.32.28-.63.45-1.03.72.64,1.24,1.37,1.88,1.98.62.6,1.21,1.25,1.79,1.85.32.02.43-.17.58-.38.89-1.33,1.88-2.57,2.87-3.85.35.17.45.47.59.73.46.86.89,1.73,1.38,2.58.33.57.72,1.1,1.24,1.55.69-.62,1.36-1.21,2.01-1.82.62-.59,1.22-1.21,1.89-1.89.65,1.81,1.27,3.52,1.91,5.29.99-.41,1.79-1.2,2.83-1.71.46,1.01.14,2.17.7,3.14.54-.13.78-.72,1.39-.81.04.19.08.35.1.51.06.59.1,1.18.17,1.77.05.42.15.48.63.44.1,0,.2-.01.37-.02-.09.3-.16.56-.25.81-.32.92-.64,1.84-.96,2.76-.07.2-.13.4-.16.6-.05.33.2.63.54.62.31-.02.62-.08.92-.15.44-.11.88-.23,1.3-.38.77-.26,1.56-.33,2.36-.24.13.01.28.02.41,0,1.64-.36,3.32-.24,4.91-.46.24.2.13.36.07.52-.41,1.11-.84,2.21-1.23,3.33-.14.42-.18.87-.27,1.36,1.86.45,3.69.57,5.61.67-.57.9-1.12,1.7-1.6,2.54-.46.8-.84,1.64-1.27,2.47,1.73.65,3.45,1.3,5.24,1.98-.1.15-.18.29-.28.4-.82.81-1.65,1.6-2.46,2.41-.29.29-.56.62-.81.96-.22.3-.17.59.14.82.2.14.41.26.63.37.95.51,1.91,1.01,2.86,1.51.24.13.48.27.72.4-.04.32-.29.42-.47.54-.91.64-1.84,1.25-2.76,1.87-.37.25-.75.51-1.11.78-.13.1-.21.26-.35.44,1.42,1.16,2.81,2.3,4.2,3.43-.57.51-.58.49-1.18.72-1.03.41-2.06.85-3.08,1.28-.32.14-.61.33-.78.7.43.85,1.19,1.43,1.76,2.16.55.71,1.17,1.35,1.7,2.17-.21.06-.33.11-.46.12-1.36.1-2.69.38-4,.7-.37.09-.72.26-1.06.43-.34.17-.44.4-.34.77.11.37.25.72.41,1.07.4.89.82,1.76,1.23,2.65.06.12.09.26.12.36-.12.27-.35.27-.54.27-.62.02-1.25.01-1.87,0-.8-.01-1.6-.06-2.4-.04-.53.01-.67.22-.59.74.24,1.55.54,3.08.96,4.6.05.2.09.4.15.71-.24-.07-.39-.1-.54-.16-.94-.37-1.87-.77-2.82-1.11-.52-.18-1.08-.28-1.62-.38-.23-.04-.47.02-.73.04-.26,1.02-.46,2-.51,3.01-.02.35-.04.7-.07,1.04-.03.28-.1.55-.39.73-.3-.19-.6-.4-.93-.57-.34-.18-.7-.31-1.05-.46-.35-.14-.71-.29-1.07-.42-.35-.13-.71-.25-1.1-.39-.68,1.92-1.02,3.85-1.16,5.91-.82-.69-1.55-1.33-2.31-1.93-.76-.61-1.54-1.18-2.36-1.8-.16.11-.37.18-.48.33-.42.63-.85,1.27-1.21,1.95-.4.77-.73,1.58-1.11,2.43-.16-.14-.29-.23-.4-.35-.54-.64-1.06-1.29-1.6-1.93-.31-.37-.65-.71-.76-1.22-.07-.3-.44-.37-.67-.15-.2.19-.38.4-.56.61-.95,1.11-1.9,2.22-2.85,3.33-.06.07-.17.1-.27.16-.82-1.58-1.51-3.21-2.49-4.69-.65.11-1.04.53-1.45.89-.89.78-1.77,1.57-2.66,2.35-.1.09-.22.16-.41.28Z" style="fill: #fffef7; stroke-width: 0px;"/>
  <g id="new-text">
    <path d="M14.05,39.63l1.12-.07.33-7.43-1.29.08.07-1.54,2.51-.15,5.04,6.63h.05s.24-5.42.24-5.42l-1.48.09.07-1.54,4.24-.25-.07,1.54-1.16.07-.4,8.97-.99.08-5.25-6.95h-.05s-.25,5.74-.25,5.74l1.48-.09-.07,1.54-4.21.25.07-1.54Z" style="fill: #292724; stroke-width: 0px;"/>
    <path d="M33.29,40l-7.73.46.05-1.53,1.19-.07.33-7.43-1.17.07.07-1.54,7.65-.46.18,3.02-1.47.22-.24-1.61-3.31.2-.13,2.91,4.55-.27-.07,1.54-4.55.27-.13,2.99,3.39-.2.38-1.65,1.45.04-.45,3.06Z" style="fill: #292724; stroke-width: 0px;"/>
    <path d="M49.36,30.09l-.84.05-3.14,9.13-1.25.08-2.14-7.25h-.06s-2.72,7.55-2.72,7.55l-1.29.08-2.51-8.8-.85.05.05-1.53,3.81-.23-.07,1.54-1.12.07,1.48,5.91h.1s2.28-6.14,2.28-6.14l-.9.05.07-1.54,3.82-.23-.08,1.54-.84.05,1.73,5.97h.1s1.82-6.19,1.82-6.19l-1.2.07.07-1.54,3.76-.23-.05,1.53Z" style="fill: #292724; stroke-width: 0px;"/>
    <path d="M50.17,38.99l.09-2.05,2.01-.12-.09,2.05-2.01.12ZM52.58,28.37l-.71,7.02-1.24.07-.06-6.98,2.01-.12Z" style="fill: #292724; stroke-width: 0px;"/>
  </g>
</svg>